<svg version="1.1" xmlns="http://www.w3.org/2000/svg" xmlns:xlink="http://www.w3.org/1999/xlink" width="500" height="500" viewBox="0,0,500,500"><defs><linearGradient x1="106.29742" y1="178.45013" x2="419.32658" y2="178.45013" gradientUnits="userSpaceOnUse" id="color-1"><stop offset="0" stop-color="#ff23b6"/><stop offset="1" stop-color="#ff0000"/></linearGradient></defs><g transform="translate(10,70)"><g data-paper-data="{&quot;isPaintingLayer&quot;:true}" fill-rule="nonzero" stroke="none" stroke-width="0" stroke-linecap="butt" stroke-linejoin="miter" stroke-miterlimit="10" stroke-dasharray="" stroke-dashoffset="0" style="mix-blend-mode: normal"><path d="M-10,430v-500h500v500z" fill="#ffffff"/><path d="M319.5014,375.75068c0,0 -17.57119,-82.2081 -25.78022,-120.61466c-5.35784,-25.067 -34.77265,-150.14004 -55.08554,-224.11593c-3.77042,-13.73118 -24.70416,-17.18894 -30.71054,-17.65997c-5.46279,-0.13328 -21.28786,4.95645 -30.8551,21.70015c-0.99761,1.74591 -22.87545,166.01432 -23.83715,255.80091c-0.20042,18.71051 16.63923,31.36047 30.23524,24.48359c5.05744,-2.55806 210.04369,-154.203 210.04369,-154.203c0,0 23.69041,43.34329 25.8148,42.68197c0.00429,-0.00135 -217.79903,159.62896 -224.08645,161.61926c-13.221,4.18513 -36.64227,10.85317 -54.66306,11.92836c-21.00435,1.25319 -34.32149,-28.75212 -34.27954,-34.09735c0.55677,-70.93088 38.66405,-307.79325 39.69674,-310.47454c6.21099,-16.12618 34.69179,-50.11323 56.96983,-50.20839c31.87485,-0.13614 74.20306,22.88265 79.94897,43.825c20.49143,74.68596 56.36554,204.58749 61.67131,229.41103c8.1888,38.31195 25.63252,119.92357 25.63252,119.92357z" fill="url(#color-1)"/></g></g></svg>