<svg version="1.1" xmlns="http://www.w3.org/2000/svg" xmlns:xlink="http://www.w3.org/1999/xlink" width="21.80204" height="27.53179" viewBox="0,0,21.80204,27.53179"><defs><linearGradient x1="228.99463" y1="179.94075" x2="250.90102" y2="179.94075" gradientUnits="userSpaceOnUse" id="color-1"><stop offset="0" stop-color="#ff23b6"/><stop offset="1" stop-color="#ff0000"/></linearGradient></defs><g transform="translate(-229.09898,-166.2341)"><g data-paper-data="{&quot;isPaintingLayer&quot;:true}" fill="url(#color-1)" fill-rule="nonzero" stroke="none" stroke-width="0" stroke-linecap="butt" stroke-linejoin="miter" stroke-miterlimit="10" stroke-dasharray="" stroke-dashoffset="0" style="mix-blend-mode: normal"><path d="M243.91506,193.74823c0,0 -1.22967,-5.75308 -1.80415,-8.44085c-0.34458,-1.61215 -2.11105,-9.13514 -3.49828,-14.3614c-0.12226,-0.4606 -0.99174,-2.15072 -1.481,-2.33064c-0.41695,-0.15333 -0.8315,-0.21275 -1.0249,-0.22791c-0.24224,-0.00591 -0.77566,0.13494 -1.30432,0.53706c-0.30564,0.23248 -0.93212,1.42454 -1.02816,2.13369c-0.41781,3.08513 -1.44027,11.64026 -1.49499,16.74932c-0.01403,1.3094 1.16445,2.19467 2.11592,1.71341c0.35393,-0.17902 14.69927,-10.79143 14.69927,-10.79143c0,0 1.6579,3.03325 1.80657,2.98697c0.00024,-0.00008 -9.79784,7.18106 -13.9093,10.09998c-1.01656,0.7217 -2.80951,1.52694 -3.45213,1.68359c-0.41217,0.10047 -0.84249,0.19227 -1.26034,0.25954c-0.30591,0.04925 -1.99679,-0.19128 -2.39065,-0.61875c-0.21878,-0.23746 -0.40152,-0.50524 -0.54357,-0.75762c-0.22825,-0.40555 -0.29504,-2.40839 -0.21141,-3.39488c0.43153,-5.09024 1.75189,-13.81298 2.34575,-17.50748c0.16917,-1.05244 0.59053,-2.34458 0.84567,-2.7081c0.81122,-1.15582 2.24847,-2.53351 3.43451,-2.53858c1.57563,-0.00673 3.51624,0.79502 4.66181,1.78296c0.47625,0.41072 1.10549,1.91183 1.19657,2.2435c1.4584,5.31053 3.703,13.46006 4.05248,15.09514c0.57307,2.68115 1.79381,8.39249 1.79381,8.39249z"/></g></g></svg>